<svg width="47" height="47" viewBox="0 0 47 47" fill="none" xmlns="http://www.w3.org/2000/svg">
<path d="M37.208 15.6667C40.4528 15.6667 43.083 13.0364 43.083 9.79169C43.083 6.54702 40.4528 3.91669 37.208 3.91669C33.9632 3.91669 31.333 6.54702 31.333 9.79169C31.333 13.0364 33.9632 15.6667 37.208 15.6667Z" fill="#B2BBC6"/>
<path d="M38.7753 18.4475C38.7362 18.4475 38.697 18.4671 38.6578 18.4671C38.462 18.5063 38.2662 18.5258 38.0507 18.565C37.2282 18.6433 36.347 18.6042 35.4462 18.4279C35.2112 18.3692 35.0153 18.33 34.7999 18.2517C34.1537 18.095 33.5466 17.8404 32.9787 17.5075C32.7437 17.39 32.5087 17.2333 32.2932 17.0962C31.3532 16.45 30.5503 15.6471 29.9041 14.7071C29.767 14.4917 29.6103 14.2567 29.4928 14.0217C29.1599 13.4538 28.9053 12.8467 28.7487 12.2004C28.6703 11.985 28.6312 11.7892 28.5724 11.5542C28.3962 10.6533 28.357 9.77208 28.4353 8.94958C28.4745 8.73417 28.4941 8.53833 28.5332 8.3425C28.5332 8.30333 28.5528 8.26417 28.5528 8.225C28.7878 7.01083 27.887 5.875 26.6337 5.875H14.727C14.4528 5.875 14.1787 5.89458 13.9241 5.91417C13.6891 5.93375 13.4737 5.95333 13.2387 5.9925C13.0037 6.01208 12.7687 6.05125 12.5532 6.09042C7.83366 6.77583 4.81783 9.77208 4.13241 14.5113C4.09324 14.7267 4.05408 14.9617 4.03449 15.1967C3.99533 15.4317 3.97574 15.6471 3.95616 15.8821C3.93658 16.1367 3.91699 16.4108 3.91699 16.685V32.2733C3.91699 32.5475 3.93658 32.8217 3.95616 33.0763C3.97574 33.3113 3.99533 33.5267 4.03449 33.7617C4.05408 33.9967 4.09324 34.2317 4.13241 34.4471C4.81783 39.1863 7.83366 42.1825 12.5532 42.8679C12.7687 42.9071 13.0037 42.9463 13.2387 42.9658C13.4737 43.005 13.6891 43.0246 13.9241 43.0442C14.1787 43.0638 14.4528 43.0833 14.727 43.0833H30.3153C30.5895 43.0833 30.8637 43.0638 31.1182 43.0442C31.3532 43.0246 31.5687 43.005 31.8037 42.9658C32.0387 42.9463 32.2737 42.9071 32.4891 42.8679C37.2087 42.1825 40.2245 39.1863 40.9099 34.4471C40.9491 34.2317 40.9882 33.9967 41.0078 33.7617C41.047 33.5267 41.0666 33.3113 41.0862 33.0763C41.1057 32.8217 41.1253 32.5475 41.1253 32.2733V20.3667C41.1253 19.1133 39.9895 18.2125 38.7753 18.4475ZM13.2191 24.4792H23.0107C23.8137 24.4792 24.4795 25.145 24.4795 25.9479C24.4795 26.7508 23.8137 27.4167 23.0107 27.4167H13.2191C12.4162 27.4167 11.7503 26.7508 11.7503 25.9479C11.7503 25.145 12.4162 24.4792 13.2191 24.4792ZM30.8441 35.25H13.2191C12.4162 35.25 11.7503 34.5842 11.7503 33.7813C11.7503 32.9783 12.4162 32.3125 13.2191 32.3125H30.8441C31.647 32.3125 32.3128 32.9783 32.3128 33.7813C32.3128 34.5842 31.647 35.25 30.8441 35.25Z" fill="#B2BBC6"/>
</svg>
